<svg xmlns="http://www.w3.org/2000/svg">
    <symbol id="location" viewBox="0 0 14 20">
      <title>Fill 2</title><path d="M7 0C3.13 0 0 3.13 0 7c0 5.25 7 13 7 13s7-7.75 7-13c0-3.87-3.13-7-7-7zm0 9.5a2.5 2.5 0 0 1 0-5 2.5 2.5 0 0 1 0 5z" fill-rule="evenodd"/>
    </symbol>
    <symbol id="target-window" viewBox="0 0 17.95 14.31">
      <title>Asset 2</title><g id="Layer_2" data-name="Layer 2"><g id="Layer_1-2" data-name="Layer 1"><path class="cls-1" d="M14.73 6.38v6.3H1.62V3.23h9.96V1.6H0v12.71h16.35V6.33h-1.62v.05z"/><path class="cls-1" d="M13.18 0v1.62h2.06l-3.66 3.66 1.15 1.15 3.6-3.6v1.9h1.62V0h-4.77z"/></g></g>
    </symbol></svg>